<?xml version="1.0" encoding="utf-8"?>
<!-- Generator: Adobe Illustrator 15.0.0, SVG Export Plug-In . SVG Version: 6.00 Build 0)  -->
<!DOCTYPE svg PUBLIC "-//W3C//DTD SVG 1.1//EN" "http://www.w3.org/Graphics/SVG/1.1/DTD/svg11.dtd">
<svg version="1.1" xmlns="http://www.w3.org/2000/svg" xmlns:xlink="http://www.w3.org/1999/xlink" x="0px" y="0px" width="31px"
	 height="31px" viewBox="0 0 31 31" enable-background="new 0 0 31 31" xml:space="preserve">
<g id="레이어_2">
	<path fill="#FFFFFF" d="M15.5,1C7.522,1,1.032,7.49,1.032,15.468S7.522,29.936,15.5,29.936c7.979,0,14.469-6.49,14.469-14.468
		S23.479,1,15.5,1z"/>
</g>
<g id="레이어_1">
	
		<image display="none" overflow="visible" enable-background="new    " width="31" height="31" xlink:href="106FD3B2.png"  transform="matrix(1 0 0 1 0 0.0859)">
	</image>
	<path fill="#00549E" d="M15.5,30.936c-8.529,0-15.468-6.938-15.468-15.468C0.032,6.939,6.971,0,15.5,0
		c8.529,0,15.469,6.939,15.469,15.468C30.969,23.997,24.029,30.936,15.5,30.936z M15.5,1C7.522,1,1.032,7.49,1.032,15.468
		S7.522,29.936,15.5,29.936c7.979,0,14.469-6.49,14.469-14.468S23.479,1,15.5,1z"/>
	<path fill="#00549E" d="M16.434,21.525h-2.507v-6.059h-1.253V13.38h1.253v-1.253c0-1.702,0.706-2.716,2.716-2.716h1.672v2.088
		H17.27c-0.781,0-0.834,0.292-0.834,0.835l-0.002,1.045h1.895l-0.223,2.088h-1.672V21.525L16.434,21.525z"/>
</g>
</svg>
