<?xml version="1.0" encoding="utf-8"?>
<!-- Generator: Adobe Illustrator 15.0.0, SVG Export Plug-In . SVG Version: 6.00 Build 0)  -->
<!DOCTYPE svg PUBLIC "-//W3C//DTD SVG 1.1//EN" "http://www.w3.org/Graphics/SVG/1.1/DTD/svg11.dtd">
<svg version="1.1" id="레이어_1" xmlns="http://www.w3.org/2000/svg" xmlns:xlink="http://www.w3.org/1999/xlink" x="0px"
	 y="0px" width="139px" height="39px" viewBox="0 0 139 39" enable-background="new 0 0 139 39" xml:space="preserve">
<path fill="#FFFFFF" d="M33.059,9.661c0-1.368-0.53-2.65-1.492-3.612c-1.992-1.992-5.233-1.992-7.225,0l-14.68,14.68
	C8.7,21.689,8.17,22.973,8.17,24.34c0,0.926,0.248,1.811,0.703,2.584l-1.974,1.975c-0.502,0.502-0.502,1.315,0,1.818
	c0.251,0.25,0.58,0.376,0.908,0.376c0.33,0,0.658-0.126,0.909-0.376l1.972-1.974c0.647,0.379,1.377,0.614,2.135,0.681
	c0.038,0.006,0.076,0.006,0.114,0.006c0.659,0,1.22-0.504,1.278-1.172c0.062-0.709-0.461-1.332-1.168-1.394
	c-0.594-0.052-1.15-0.312-1.568-0.729l0,0v-0.001c-0.477-0.477-0.739-1.112-0.739-1.795c0-0.682,0.263-1.319,0.739-1.795
	l14.68-14.679c0.99-0.99,2.6-0.99,3.59,0c0.476,0.477,0.738,1.113,0.738,1.795c0,0.682-0.263,1.318-0.738,1.795L16.305,24.9
	c-0.501,0.5-0.501,1.314,0,1.816c0.502,0.501,1.316,0.501,1.818,0l13.443-13.445C32.528,12.312,33.059,11.028,33.059,9.661z"/>
<path fill="#FFFFFF" d="M11.745,17.16l1.818-1.817L7.512,9.292c-0.142-0.142-0.22-0.33-0.22-0.531c0-0.201,0.079-0.39,0.22-0.532
	l4.331-4.331c0.283-0.284,0.779-0.284,1.063,0l6.051,6.051l1.817-1.818l-6.05-6.05c-0.627-0.627-1.461-0.973-2.349-0.973
	c-0.887,0-1.722,0.345-2.349,0.973L5.695,6.412C5.067,7.04,4.722,7.874,4.722,8.761c0,0.888,0.345,1.722,0.973,2.35L11.745,17.16z"
	/>
<path fill="#FFFFFF" d="M35.534,22.893l-6.051-6.051l-1.817,1.817l6.05,6.05c0.142,0.143,0.22,0.331,0.22,0.53
	c0,0.2-0.078,0.391-0.22,0.532l-4.332,4.33c-0.283,0.285-0.778,0.285-1.062,0l-6.051-6.051l-1.817,1.818l6.049,6.05
	c0.628,0.627,1.462,0.974,2.35,0.974c0.887,0,1.721-0.347,2.349-0.974l4.331-4.331c0.628-0.627,0.974-1.461,0.974-2.35
	C36.507,24.354,36.162,23.52,35.534,22.893z"/>
<path fill="#FFFFFF" d="M10.542,33.68c-0.882,0.881-2.055,1.367-3.303,1.367c-1.248,0-2.421-0.486-3.304-1.367
	c-1.821-1.822-1.821-4.785,0-6.605c0.502-0.504,0.502-1.315,0-1.817s-1.315-0.502-1.817,0c-2.824,2.822-2.824,7.418,0,10.24
	c1.368,1.368,3.187,2.121,5.121,2.121c1.934,0,3.752-0.753,5.121-2.121c0.502-0.5,0.502-1.313,0-1.817
	C11.858,33.18,11.044,33.178,10.542,33.68z"/>
<g>
	<path fill="#FFFFFF" d="M66.585,22.677v1.817c0,1.061-0.228,2.008-0.663,2.859c-0.454,0.871-1.06,1.61-1.818,2.254
		c-0.776,0.662-1.666,1.212-2.689,1.628c-1.042,0.455-2.14,0.776-3.295,0.985V30.27c0.682-0.188,1.382-0.454,2.064-0.813
		c0.682-0.341,1.288-0.739,1.855-1.193c0.53-0.436,0.985-0.928,1.326-1.477c0.341-0.53,0.511-1.08,0.511-1.667v-0.474h-5.416v-1.344
		c0-0.151,0.038-0.304,0.152-0.436c0.076-0.114,0.227-0.189,0.454-0.189H66.585z M72.228,36.879v1.345
		c0,0.17-0.057,0.303-0.17,0.416c-0.113,0.133-0.266,0.208-0.436,0.208h-8.957c-0.72,0-1.231-0.17-1.534-0.511
		c-0.341-0.341-0.493-0.871-0.493-1.609v-3.712h1.534c0.284,0,0.511,0.038,0.682,0.113c0.151,0.076,0.265,0.171,0.341,0.284
		c0.076,0.133,0.113,0.266,0.132,0.398c0,0.151,0.019,0.303,0.019,0.436v2.007c0,0.208,0.076,0.359,0.227,0.454
		c0.133,0.114,0.303,0.171,0.511,0.171H72.228z M67.399,28.206h2.216v-1.742h-2.538v-1.345c0-0.151,0.057-0.303,0.17-0.416
		c0.114-0.114,0.246-0.171,0.436-0.189h1.932v-1.609c0-0.455,0.095-0.758,0.303-0.909c0.189-0.151,0.511-0.228,0.966-0.228h1.42
		v9.809c0,0.304-0.019,0.588-0.038,0.814c-0.038,0.246-0.113,0.455-0.208,0.625c-0.113,0.189-0.246,0.322-0.436,0.397
		c-0.189,0.114-0.454,0.151-0.758,0.151h-1.249v-3.408h-2.822v-1.345c0-0.151,0.057-0.283,0.189-0.416
		C67.097,28.281,67.229,28.225,67.399,28.206z"/>
	<path fill="#FFFFFF" d="M73.832,25.252v-1.325c0-0.152,0.057-0.304,0.189-0.436c0.113-0.114,0.246-0.189,0.436-0.189h3.162v-0.928
		c0-0.133,0-0.266,0.038-0.417c0.019-0.113,0.075-0.228,0.17-0.341c0.076-0.095,0.189-0.171,0.36-0.246
		c0.151-0.057,0.379-0.095,0.644-0.095h1.478v2.026h1.06c0.739,0,1.345-0.038,1.818-0.133c0.454-0.076,0.795-0.171,1.041-0.284
		v1.439c0,0.208-0.037,0.359-0.113,0.474c-0.075,0.113-0.189,0.208-0.303,0.246c-0.133,0.075-0.284,0.113-0.436,0.132
		c-0.171,0.038-0.341,0.058-0.512,0.058c0.246,0.303,0.455,0.644,0.606,1.003c0.133,0.379,0.208,0.776,0.208,1.212
		c0,0.645-0.133,1.231-0.359,1.724c-0.266,0.511-0.587,0.928-1.004,1.269s-0.909,0.605-1.458,0.776
		c-0.568,0.189-1.174,0.265-1.818,0.265c-0.644,0-1.249-0.075-1.799-0.265c-0.567-0.171-1.061-0.436-1.477-0.776
		c-0.417-0.341-0.758-0.758-0.984-1.269c-0.266-0.492-0.379-1.079-0.379-1.724c0-0.416,0.057-0.814,0.208-1.192
		c0.133-0.36,0.322-0.701,0.587-1.004H73.832z M88.053,32.808v4.223c0,0.303-0.019,0.568-0.057,0.795
		c-0.038,0.266-0.113,0.474-0.208,0.645c-0.113,0.17-0.246,0.303-0.436,0.378C87.163,38.942,86.898,39,86.595,39h-1.25v-4.242
		h-8.881v-1.325c0-0.171,0.057-0.322,0.171-0.455c0.113-0.113,0.246-0.17,0.416-0.17H88.053z M79.039,29.531
		c0.568,0,1.023-0.17,1.345-0.549c0.303-0.341,0.455-0.853,0.455-1.496c0-0.605-0.152-1.099-0.455-1.439
		c-0.321-0.341-0.776-0.511-1.345-0.511c-0.605,0-1.041,0.17-1.344,0.511c-0.322,0.341-0.474,0.834-0.474,1.439
		c0,0.644,0.151,1.155,0.474,1.496C77.998,29.361,78.434,29.531,79.039,29.531z M90.723,25.29v1.307
		c0,0.189-0.057,0.341-0.151,0.454c-0.113,0.151-0.265,0.208-0.454,0.208h-1.913v2.292c0,0.303-0.019,0.567-0.057,0.795
		c-0.037,0.266-0.113,0.474-0.208,0.625c-0.113,0.189-0.246,0.322-0.436,0.397c-0.189,0.113-0.454,0.151-0.758,0.151h-1.249v-8.615
		c0-0.455,0.095-0.776,0.321-0.929c0.189-0.132,0.512-0.208,0.947-0.208h1.438v3.522H90.723z"/>
	<path fill="#FFFFFF" d="M95.755,22.203c0.644,0,1.269,0.113,1.855,0.322c0.568,0.227,1.061,0.53,1.496,0.928
		c0.416,0.416,0.757,0.928,1.022,1.496c0.228,0.605,0.359,1.269,0.359,2.026c0,0.757-0.132,1.438-0.359,2.025
		c-0.266,0.606-0.606,1.099-1.022,1.496c-0.436,0.417-0.928,0.72-1.496,0.928c-0.587,0.228-1.212,0.322-1.855,0.322
		c-0.663,0-1.27-0.095-1.837-0.322c-0.587-0.208-1.099-0.511-1.516-0.928c-0.435-0.397-0.776-0.89-1.003-1.496
		c-0.266-0.587-0.379-1.269-0.379-2.025c0-0.758,0.113-1.421,0.379-2.026c0.227-0.568,0.568-1.08,1.003-1.496
		c0.417-0.397,0.929-0.701,1.516-0.928C94.485,22.316,95.092,22.203,95.755,22.203z M96.985,36.879h8.161v1.325
		c0,0.171-0.057,0.322-0.17,0.436c-0.113,0.151-0.266,0.208-0.436,0.208h-8.957c-0.72,0-1.25-0.17-1.553-0.511
		c-0.322-0.341-0.474-0.871-0.474-1.629V32.77h1.553c0.266,0,0.493,0.038,0.663,0.113c0.151,0.076,0.266,0.171,0.341,0.284
		c0.076,0.114,0.113,0.246,0.133,0.379c0,0.151,0.019,0.303,0.019,0.454v2.254c0,0.208,0.057,0.359,0.208,0.454
		C96.606,36.822,96.777,36.879,96.985,36.879z M95.755,29.759c0.567,0,1.061-0.228,1.477-0.72c0.379-0.454,0.587-1.155,0.587-2.063
		c0-0.909-0.208-1.591-0.587-2.083c-0.416-0.455-0.909-0.701-1.477-0.701c-0.568,0-1.061,0.246-1.439,0.701
		c-0.417,0.492-0.606,1.174-0.606,2.083c0,0.908,0.189,1.609,0.606,2.063C94.694,29.531,95.187,29.759,95.755,29.759z
		 M107.646,25.669v1.307c0,0.188-0.057,0.341-0.151,0.454c-0.114,0.151-0.266,0.208-0.455,0.208h-1.912v3.938
		c0,0.304-0.019,0.568-0.057,0.796c-0.038,0.265-0.114,0.474-0.208,0.625c-0.114,0.189-0.247,0.321-0.436,0.397
		c-0.189,0.113-0.455,0.151-0.758,0.151h-1.25V22.904c0-0.455,0.095-0.776,0.322-0.929c0.189-0.132,0.511-0.208,0.946-0.208h1.439
		v3.901H107.646z"/>
	<path fill="#FFFFFF" d="M115.632,32.713v1.307c0,0.17-0.058,0.321-0.171,0.436c-0.133,0.151-0.284,0.208-0.454,0.208h-4.47
		c-0.719,0-1.23-0.17-1.533-0.511c-0.341-0.341-0.492-0.871-0.492-1.629v-9.506h1.325c0.266,0,0.492,0.038,0.682,0.095
		c0.151,0.075,0.284,0.151,0.379,0.246c0.075,0.113,0.133,0.246,0.17,0.359c0.02,0.151,0.038,0.284,0.038,0.417v7.915
		c0,0.189,0.057,0.36,0.189,0.474c0.113,0.133,0.284,0.189,0.53,0.189H115.632z M123.281,36.859c0,0.304-0.019,0.588-0.057,0.814
		c-0.038,0.246-0.113,0.455-0.208,0.625c-0.113,0.189-0.246,0.322-0.436,0.397c-0.189,0.114-0.454,0.151-0.758,0.151h-1.136v-9.543
		h-1.401v7.403c0,0.304-0.019,0.568-0.057,0.796c-0.038,0.265-0.114,0.473-0.208,0.644c-0.114,0.17-0.247,0.303-0.436,0.379
		c-0.209,0.113-0.455,0.151-0.758,0.151h-1.137V23.093c0-0.454,0.095-0.776,0.322-0.928c0.189-0.151,0.512-0.227,0.947-0.227h1.325
		v5.396h1.401v-4.431c0-0.455,0.095-0.758,0.322-0.909c0.188-0.151,0.511-0.228,0.965-0.228h1.307V36.859z"/>
</g>
<g>
	<path fill="#FFFFFF" d="M70.239,0.514l-4.503,6.395l4.521,6.792c0.057,0.076,0.076,0.151,0.076,0.208
		c0,0.114-0.095,0.189-0.266,0.189h-3.253c-0.228,0-0.322-0.113-0.417-0.265L62.558,7.59v6.13c0,0.208-0.17,0.378-0.378,0.378
		h-2.479c-0.208,0-0.379-0.17-0.379-0.378V0.4c0-0.208,0.17-0.359,0.379-0.359h2.479c0.208,0,0.378,0.151,0.378,0.359v6.017
		l4.163-6.149c0.095-0.151,0.208-0.227,0.416-0.227h2.895c0.208,0,0.303,0.094,0.303,0.208C70.334,0.324,70.296,0.419,70.239,0.514z
		"/>
	<path fill="#FFFFFF" d="M75.025,14.099H72.49c-0.208,0-0.341-0.17-0.341-0.378V0.4c0-0.208,0.133-0.359,0.341-0.359h2.535
		c0.208,0,0.359,0.151,0.359,0.359v13.32C75.385,13.928,75.233,14.099,75.025,14.099z"/>
	<path fill="#FFFFFF" d="M83.312,14.269c-3.122,0-5.601-1.684-5.601-6.074V5.944c0-4.39,2.479-6.074,5.601-6.074
		s5.601,1.684,5.601,6.074v2.251C88.913,12.585,86.435,14.269,83.312,14.269z M85.658,5.944c0-2.271-0.757-3.236-2.346-3.236
		c-1.59,0-2.327,0.965-2.327,3.236v2.251c0,2.271,0.737,3.235,2.327,3.235c1.589,0,2.346-0.965,2.346-3.235V5.944z"/>
	<path fill="#FFFFFF" d="M95.08,14.269c-1.494,0-2.61-0.17-3.576-0.417c-0.188-0.057-0.378-0.17-0.378-0.378V11.62
		c0-0.265,0.151-0.359,0.341-0.359c0.019,0,0.037,0,0.057,0c0.775,0.075,2.857,0.227,3.595,0.227c1.306,0,1.685-0.416,1.685-1.324
		c0-0.549-0.266-0.852-1.249-1.438l-2.611-1.551c-1.76-1.041-2.232-2.233-2.232-3.614c0-2.081,1.173-3.689,4.844-3.689
		c1.381,0,3.292,0.227,4.011,0.416c0.151,0.038,0.284,0.133,0.284,0.341v1.911c0,0.17-0.076,0.321-0.321,0.321c0,0-0.02,0-0.038,0
		c-0.53-0.038-2.725-0.208-4.012-0.208c-1.078,0-1.476,0.322-1.476,1.003c0,0.53,0.246,0.776,1.268,1.324l2.422,1.306
		c1.968,1.06,2.555,2.309,2.555,3.841C100.246,12.131,98.922,14.269,95.08,14.269z"/>
	<path fill="#FFFFFF" d="M111.276,2.708h-3.065V13.72c0,0.208-0.17,0.378-0.378,0.378h-2.479c-0.208,0-0.378-0.17-0.378-0.378V2.708
		h-3.084c-0.208,0-0.379-0.151-0.379-0.359V0.4c0-0.208,0.171-0.359,0.379-0.359h9.385c0.208,0,0.397,0.151,0.397,0.359v1.949
		C111.674,2.557,111.484,2.708,111.276,2.708z"/>
</g>
</svg>
