<?xml version="1.0" encoding="utf-8"?>
<!-- Generator: Adobe Illustrator 15.0.0, SVG Export Plug-In . SVG Version: 6.00 Build 0)  -->
<!DOCTYPE svg PUBLIC "-//W3C//DTD SVG 1.1//EN" "http://www.w3.org/Graphics/SVG/1.1/DTD/svg11.dtd">
<svg version="1.1" id="레이어_1" xmlns="http://www.w3.org/2000/svg" xmlns:xlink="http://www.w3.org/1999/xlink" x="0px"
	 y="0px" width="500px" height="500px" viewBox="0 0 500 500" enable-background="new 0 0 500 500" xml:space="preserve">
<image display="none" overflow="visible" enable-background="new    " width="500" height="500" id="H6oeMl_2_" xlink:href="8F070894.jpeg" >
</image>
<circle fill="#FFFFFF" cx="27.939" cy="187.956" r="27.939"/>
<circle fill="#FFFFFF" cx="86.897" cy="187.956" r="27.939"/>
<circle fill="#FFFFFF" cx="146.28" cy="187.956" r="27.939"/>
<circle fill="#139CAC" cx="27.939" cy="126.974" r="27.939"/>
<circle fill="#A8A8A8" cx="86.897" cy="126.974" r="27.939"/>
<circle fill="#7D9AC3" cx="146.28" cy="126.974" r="27.939"/>
<circle fill="#3B3B3B" cx="322.781" cy="28.562" r="11.562"/>
<circle fill="#D30000" cx="175.948" cy="20.981" r="16.984"/>
<path fill="#FFFFFF" d="M0.722,7.952c-0.849,0.85-0.909,2.166-0.135,2.94l0,0c0.774,0.773,2.09,0.713,2.939-0.136l7.237-7.237
	c0.85-0.849,0.91-2.166,0.136-2.94l0,0c-0.775-0.774-2.091-0.714-2.94,0.136L0.722,7.952z"/>
<path fill="#FFFFFF" d="M3.527,8.273c-0.849-0.849-2.166-0.909-2.94-0.135l0,0c-0.773,0.774-0.713,2.09,0.136,2.939l7.237,7.237
	c0.85,0.85,2.166,0.91,2.94,0.137l0,0c0.774-0.775,0.714-2.092-0.136-2.941L3.527,8.273z"/>
<path fill="#FFFFFF" d="M40.348,7.952c0.849,0.85,0.909,2.166,0.135,2.94l0,0c-0.774,0.773-2.09,0.713-2.939-0.136l-7.237-7.237
	c-0.85-0.849-0.91-2.166-0.136-2.94l0,0c0.775-0.774,2.091-0.714,2.94,0.136L40.348,7.952z"/>
<path fill="#FFFFFF" d="M37.542,8.273c0.849-0.849,2.166-0.909,2.94-0.135l0,0c0.773,0.774,0.713,2.09-0.136,2.939l-7.237,7.237
	c-0.85,0.85-2.166,0.91-2.94,0.137l0,0c-0.774-0.775-0.714-2.092,0.136-2.941L37.542,8.273z"/>
<path fill="#423E42" d="M207.443,28.915c-1.002,1.002-1.073,2.555-0.16,3.47l0,0c0.914,0.913,2.467,0.842,3.469-0.16l8.54-8.54
	c1.002-1.002,1.073-2.555,0.161-3.469l0,0c-0.915-0.913-2.468-0.842-3.47,0.16L207.443,28.915z"/>
<path fill="#423E42" d="M210.753,29.294c-1.001-1.002-2.555-1.072-3.47-0.159l0,0c-0.913,0.914-0.842,2.466,0.161,3.469l8.54,8.539
	c1.002,1.002,2.555,1.074,3.469,0.161l0,0c0.913-0.915,0.842-2.469-0.16-3.47L210.753,29.294z"/>
<path fill="#423E42" d="M247.857,28.915c1.002,1.002,1.073,2.555,0.16,3.47l0,0c-0.914,0.913-2.467,0.842-3.468-0.16l-8.54-8.54
	c-1.002-1.002-1.073-2.555-0.161-3.469l0,0c0.915-0.913,2.468-0.842,3.47,0.16L247.857,28.915z"/>
<path fill="#423E42" d="M244.547,29.294c1.001-1.002,2.555-1.072,3.47-0.159l0,0c0.913,0.914,0.842,2.466-0.161,3.469l-8.539,8.539
	c-1.003,1.002-2.556,1.074-3.469,0.161l0,0c-0.913-0.915-0.842-2.469,0.16-3.47L244.547,29.294z"/>
<path fill="#FFFFFF" d="M56.473,7.952c0.849,0.85,0.909,2.166,0.135,2.94l0,0c-0.774,0.773-2.09,0.713-2.939-0.136l-7.237-7.237
	c-0.85-0.849-0.91-2.166-0.136-2.94l0,0c0.775-0.774,2.091-0.714,2.94,0.136L56.473,7.952z"/>
<path fill="#FFFFFF" d="M53.667,8.273c0.849-0.849,2.166-0.909,2.94-0.135l0,0c0.773,0.774,0.713,2.09-0.136,2.939l-7.237,7.237
	c-0.85,0.85-2.166,0.91-2.94,0.137l0,0c-0.774-0.775-0.714-2.092,0.136-2.941L53.667,8.273z"/>
<path fill="#FFFFFF" d="M45.752,2.174c0-1.2,0.889-2.174,1.984-2.174l0,0c1.094,0,1.982,0.973,1.982,2.175v14.446
	c0,1.202-0.888,2.175-1.982,2.176l0,0c-1.096-0.001-1.984-0.975-1.983-2.176L45.752,2.174z"/>
<path fill="#FFFFFF" d="M16,14.473c0,0.835,0.676,1.511,1.511,1.511l0,0c0.834,0,1.511-0.676,1.511-1.511V5.428
	c0-0.835-0.676-1.511-1.511-1.511l0,0C16.677,3.917,16,4.593,16,5.428V14.473z"/>
<path fill="#FFFFFF" d="M21.985,14.473c0,0.835,0.676,1.511,1.511,1.511l0,0c0.834,0,1.511-0.676,1.511-1.511V5.428
	c0-0.835-0.676-1.511-1.511-1.511l0,0c-0.835,0-1.511,0.676-1.511,1.511V14.473z"/>
<path fill="#CCCCCC" d="M0.722,27.323c-0.849,0.85-0.909,2.166-0.135,2.94l0,0c0.774,0.773,2.09,0.713,2.939-0.136l7.237-7.237
	c0.85-0.849,0.91-2.166,0.136-2.94l0,0c-0.775-0.774-2.091-0.714-2.94,0.136L0.722,27.323z"/>
<path fill="#CCCCCC" d="M3.527,27.645c-0.849-0.849-2.166-0.909-2.94-0.135l0,0c-0.773,0.774-0.713,2.09,0.136,2.939l7.237,7.237
	c0.85,0.85,2.166,0.91,2.94,0.137l0,0c0.774-0.775,0.714-2.092-0.136-2.941L3.527,27.645z"/>
<path fill="#CCCCCC" d="M40.348,27.323c0.849,0.85,0.909,2.166,0.135,2.94l0,0c-0.774,0.773-2.09,0.713-2.939-0.136l-7.237-7.237
	c-0.85-0.849-0.91-2.166-0.136-2.94l0,0c0.775-0.774,2.091-0.714,2.94,0.136L40.348,27.323z"/>
<path fill="#CCCCCC" d="M37.542,27.645c0.849-0.849,2.166-0.909,2.94-0.135l0,0c0.773,0.774,0.713,2.09-0.136,2.939l-7.237,7.237
	c-0.85,0.85-2.166,0.91-2.94,0.137l0,0c-0.774-0.775-0.714-2.092,0.136-2.941L37.542,27.645z"/>
<path fill="#CCCCCC" d="M56.473,27.323c0.849,0.85,0.909,2.166,0.135,2.94l0,0c-0.774,0.773-2.09,0.713-2.939-0.136l-7.237-7.237
	c-0.85-0.849-0.91-2.166-0.136-2.94l0,0c0.775-0.774,2.091-0.714,2.94,0.136L56.473,27.323z"/>
<path fill="#CCCCCC" d="M53.667,27.645c0.849-0.849,2.166-0.909,2.94-0.135l0,0c0.773,0.774,0.713,2.09-0.136,2.939l-7.237,7.237
	c-0.85,0.85-2.166,0.91-2.94,0.137l0,0c-0.774-0.775-0.714-2.092,0.136-2.941L53.667,27.645z"/>
<path fill="#CCCCCC" d="M45.752,21.545c0-1.2,0.889-2.174,1.984-2.174l0,0c1.094,0,1.982,0.973,1.982,2.175v14.446
	c0,1.202-0.888,2.175-1.982,2.176l0,0c-1.096-0.001-1.984-0.975-1.983-2.176L45.752,21.545z"/>
<path fill="#CCCCCC" d="M16,33.844c0,0.835,0.676,1.511,1.511,1.511l0,0c0.834,0,1.511-0.676,1.511-1.511v-9.045
	c0-0.835-0.676-1.511-1.511-1.511l0,0c-0.835,0-1.511,0.676-1.511,1.511V33.844z"/>
<path fill="#CCCCCC" d="M21.985,33.844c0,0.835,0.676,1.511,1.511,1.511l0,0c0.834,0,1.511-0.676,1.511-1.511v-9.045
	c0-0.835-0.676-1.511-1.511-1.511l0,0c-0.835,0-1.511,0.676-1.511,1.511V33.844z"/>
<path fill="#FFFFFF" d="M36.871,55.91c0-1.378-0.534-2.671-1.503-3.641c-2.008-2.008-5.274-2.007-7.283,0L13.289,67.064
	c-0.97,0.97-1.503,2.263-1.503,3.641c0,0.933,0.249,1.823,0.708,2.605l-1.989,1.99c-0.506,0.505-0.506,1.326,0,1.831
	c0.253,0.253,0.584,0.38,0.916,0.38s0.664-0.127,0.916-0.38l1.988-1.987c0.653,0.381,1.387,0.619,2.152,0.687
	c0.039,0.003,0.077,0.005,0.115,0.005c0.665,0,1.23-0.508,1.289-1.182c0.062-0.714-0.465-1.341-1.177-1.404
	c-0.598-0.053-1.159-0.314-1.581-0.734l0,0c0,0,0,0-0.001-0.001c-0.479-0.48-0.743-1.123-0.743-1.809s0.264-1.329,0.744-1.809
	l14.795-14.795c0.999-0.998,2.622-0.998,3.619,0c0.48,0.48,0.745,1.123,0.745,1.809s-0.264,1.329-0.745,1.81l-13.551,13.55
	c-0.506,0.506-0.506,1.327,0,1.832c0.506,0.506,1.326,0.506,1.832,0l13.55-13.551C36.337,58.582,36.871,57.289,36.871,55.91z"/>
<path fill="#FFFFFF" d="M15.389,63.468l1.832-1.832l-6.098-6.098c-0.144-0.143-0.222-0.333-0.222-0.536s0.078-0.392,0.222-0.536
	l4.365-4.365c0.287-0.286,0.785-0.286,1.072,0l6.098,6.098l1.832-1.832l-6.098-6.098c-0.632-0.632-1.473-0.981-2.368-0.981
	c-0.896,0-1.735,0.349-2.368,0.981L9.29,52.635c-0.632,0.632-0.98,1.473-0.98,2.368s0.349,1.736,0.98,2.368L15.389,63.468z"/>
<path fill="#FFFFFF" d="M39.366,69.245l-6.099-6.099l-1.832,1.832l6.098,6.099c0.143,0.142,0.222,0.333,0.222,0.535
	c0,0.202-0.079,0.393-0.222,0.536l-4.365,4.365c-0.286,0.287-0.785,0.287-1.071,0l-6.099-6.099l-1.832,1.832l6.098,6.099
	c0.633,0.631,1.474,0.98,2.368,0.98c0.895,0,1.736-0.349,2.368-0.98l4.365-4.365c0.633-0.633,0.981-1.473,0.981-2.368
	C40.347,70.718,39.999,69.877,39.366,69.245z"/>
<path fill="#FFFFFF" d="M14.176,80.119c-0.89,0.889-2.072,1.379-3.33,1.379c-1.257,0-2.439-0.49-3.329-1.379
	c-1.835-1.836-1.835-4.823,0-6.659c0.505-0.505,0.505-1.326,0-1.832s-1.326-0.506-1.832,0c-2.846,2.846-2.846,7.476,0,10.322
	c1.378,1.379,3.212,2.138,5.161,2.138c1.95,0,3.783-0.759,5.162-2.138c0.506-0.506,0.506-1.326,0-1.832
	C15.502,79.613,14.682,79.613,14.176,80.119z"/>
<path fill="#FFFFFF" d="M82.435,58c-4.734,0-8.585,3.851-8.585,8.586c0,0.459,0.038,0.922,0.113,1.381l-9.281,3.322
	c-0.745-1.337-1.89-2.419-3.267-3.085l1.131-4.684c0.063,0.002,0.127,0.003,0.19,0.003c4.088,0,7.414-3.326,7.414-7.414
	s-3.326-7.414-7.414-7.414c-4.087,0-7.413,3.326-7.413,7.414c0,2.85,1.64,5.443,4.2,6.678l-1.132,4.684
	c-0.063-0.002-0.126-0.003-0.19-0.003c-4.088,0-7.414,3.326-7.414,7.414c0,4.088,3.326,7.414,7.414,7.414
	c4.088,0,7.414-3.326,7.414-7.414c0-0.198-0.009-0.403-0.027-0.612l9.425-3.375c1.539,2.645,4.359,4.276,7.423,4.276
	c0.858,0,1.556-0.698,1.556-1.556c0-0.858-0.698-1.556-1.556-1.556c-3.018,0-5.474-2.456-5.474-5.474
	c0-3.019,2.456-5.474,5.474-5.474c3.019,0,5.474,2.456,5.474,5.474c0,1.564-0.671,3.057-1.842,4.095
	c-0.641,0.569-0.7,1.555-0.131,2.197c0.296,0.333,0.72,0.523,1.165,0.523l0,0c0.38,0,0.747-0.14,1.032-0.392
	c1.836-1.629,2.888-3.971,2.888-6.423C91.021,61.851,87.169,58,82.435,58z M62.735,51.808c2.372,0,4.302,1.93,4.302,4.302
	s-1.93,4.302-4.302,4.302s-4.301-1.93-4.301-4.302S60.363,51.808,62.735,51.808z M58.2,79.184c-2.372,0-4.301-1.93-4.301-4.302
	s1.929-4.302,4.301-4.302c2.372,0,4.302,1.93,4.302,4.302C62.501,77.254,60.571,79.184,58.2,79.184z"/>
<path id="compass-6_1_" fill="#FFFFFF" d="M125.542,46.84c10.357,0,18.785,8.427,18.785,18.785c0,10.359-8.427,18.785-18.785,18.785
	s-18.785-8.426-18.785-18.785C106.757,55.267,115.185,46.84,125.542,46.84z M125.542,43.083C113.094,43.083,103,53.176,103,65.625
	c0,12.448,10.093,22.542,22.542,22.542s22.542-10.093,22.542-22.542C148.083,53.176,137.99,43.083,125.542,43.083z M136.812,54.352
	l-10.559,5.61c-1.69-0.196-3.392,0.358-4.647,1.613c-1.244,1.245-1.785,2.932-1.62,4.561l-5.716,10.759l10.752-5.712
	c1.66,0.167,3.33-0.388,4.567-1.625c1.191-1.191,1.82-2.865,1.614-4.647L136.812,54.352z M125.599,67.915
	c-1.295,0-2.348-1.049-2.348-2.346c-0.001-1.299,1.049-2.35,2.348-2.348c1.297,0,2.348,1.051,2.348,2.348
	C127.945,66.863,126.894,67.915,125.599,67.915z M127.083,50.24v3.96h-0.858l-0.007-0.013l-1.504-2.546V54.2h-0.818v-3.96h0.853
	l1.517,2.564V50.24H127.083z M138.794,66.647v-0.903h1.798v-0.721h-1.798V64.24h1.959v-0.776h-2.83v3.96h2.873v-0.778
	L138.794,66.647L138.794,66.647z M114.377,63.464l-0.592,2.619l-0.617-2.619h-0.807l-0.627,2.586l-0.572-2.586h-0.874l0.991,3.94
	l0.005,0.021h0.87l0.602-2.589l0.612,2.589h0.855l1.011-3.96L114.377,63.464L114.377,63.464z M124.124,80.763
	c0.224,0.125,0.673,0.248,1.128,0.248c1.094,0,1.602-0.566,1.602-1.235c0-0.566-0.325-0.933-1.027-1.194
	c-0.521-0.2-0.739-0.312-0.739-0.567c0-0.2,0.189-0.383,0.58-0.383c0.384,0,0.673,0.112,0.828,0.189l0.2-0.721
	c-0.237-0.112-0.562-0.202-1.016-0.202c-0.934,0-1.506,0.515-1.506,1.194c0,0.585,0.436,0.952,1.099,1.187
	c0.479,0.167,0.667,0.314,0.667,0.556c0,0.266-0.218,0.438-0.633,0.438c-0.383,0-0.761-0.125-0.998-0.25L124.124,80.763z"/>
<path fill="#FFFFFF" d="M185.619,72.067h-25.804c-0.408,0-0.739-0.331-0.739-0.739V52.583c0-0.409,0.331-0.739,0.739-0.739h25.804
	c0.408,0,0.739,0.331,0.739,0.739v18.746C186.358,71.736,186.027,72.067,185.619,72.067z M160.554,70.589h24.326V53.321h-24.326
	V70.589z"/>
<path fill="#FFFFFF" d="M169.649,67.167c-0.128,0-0.255-0.032-0.369-0.099c-0.229-0.132-0.37-0.376-0.37-0.64v-9.631
	c0-0.264,0.141-0.508,0.37-0.639c0.228-0.132,0.511-0.132,0.739,0l8.341,4.815c0.229,0.132,0.37,0.375,0.37,0.64
	c0,0.265-0.141,0.508-0.37,0.64l-8.341,4.815C169.905,67.134,169.776,67.167,169.649,67.167z M170.388,58.077v7.072l6.125-3.536
	L170.388,58.077z"/>
<path fill="#FFFFFF" d="M185.397,75.673h-25.582c-0.408,0-0.739-0.331-0.739-0.739c0-0.409,0.331-0.739,0.739-0.739h25.582
	c0.409,0,0.739,0.33,0.739,0.739C186.136,75.343,185.806,75.673,185.397,75.673z"/>
<path fill="#FFFFFF" d="M27.903,132.63c-2.379,0-4.314-1.935-4.314-4.314s1.935-4.314,4.314-4.314c2.379,0,4.314,1.935,4.314,4.314
	S30.282,132.63,27.903,132.63z M27.903,125.668c-1.46,0-2.647,1.188-2.647,2.647s1.188,2.647,2.647,2.647
	c1.46,0,2.647-1.188,2.647-2.647S29.363,125.668,27.903,125.668z"/>
<path fill="#FFFFFF" d="M27.903,135.938c-4.203,0-7.622-3.419-7.622-7.622s3.419-7.622,7.622-7.622c4.203,0,7.622,3.419,7.622,7.622
	c0,2.407-1.157,4.7-3.095,6.133c-0.371,0.273-0.892,0.195-1.166-0.175c-0.273-0.37-0.195-0.892,0.175-1.166
	c1.515-1.12,2.419-2.912,2.419-4.792c0-3.284-2.671-5.955-5.955-5.955c-3.284,0-5.955,2.671-5.955,5.955
	c0,3.284,2.671,5.955,5.955,5.955c0.46,0,0.833,0.374,0.833,0.833C28.736,135.565,28.363,135.938,27.903,135.938z"/>
<path fill="#FFFFFF" d="M29.036,141.301H26.77c-1.078,0-1.954-0.876-1.954-1.954v-0.909c-0.654-0.199-1.285-0.46-1.888-0.782
	l-0.643,0.643c-0.762,0.761-2.001,0.761-2.763,0l-1.603-1.603c-0.762-0.762-0.762-2.001,0-2.763l0.643-0.643
	c-0.321-0.602-0.583-1.233-0.782-1.888h-0.908c-1.078,0-1.954-0.877-1.954-1.954v-2.266c0-1.078,0.876-1.954,1.954-1.954h0.908
	c0.199-0.654,0.461-1.286,0.782-1.888l-0.643-0.643c-0.369-0.37-0.572-0.859-0.572-1.382c0-0.522,0.204-1.013,0.572-1.382
	l1.603-1.602c0.762-0.761,2.001-0.761,2.763,0l0.643,0.643c0.602-0.321,1.233-0.583,1.888-0.782v-0.909
	c0-1.078,0.876-1.954,1.954-1.954h2.266c1.077,0,1.954,0.876,1.954,1.954v0.909c0.654,0.199,1.285,0.46,1.888,0.782l0.643-0.643
	c0.762-0.761,2.001-0.761,2.763,0l1.603,1.603c0.761,0.762,0.761,2.001,0,2.763l-0.643,0.643c0.321,0.603,0.583,1.233,0.782,1.888
	h0.909c1.078,0,1.954,0.876,1.954,1.954v2.266c0,1.077-0.876,1.954-1.954,1.954h-0.909c-0.199,0.654-0.46,1.285-0.782,1.888
	l0.643,0.643c0.761,0.762,0.761,2.001,0,2.763l-1.603,1.603c-0.762,0.761-2.001,0.761-2.763,0l-0.643-0.643
	c-0.603,0.322-1.234,0.583-1.888,0.782v0.909C30.99,140.424,30.113,141.301,29.036,141.301z M22.79,135.782
	c0.151,0,0.303,0.041,0.438,0.125c0.808,0.499,1.687,0.863,2.614,1.082c0.376,0.089,0.642,0.425,0.642,0.811v1.547
	c0,0.158,0.128,0.287,0.287,0.287h2.266c0.158,0,0.287-0.129,0.287-0.287V137.8c0-0.386,0.265-0.722,0.642-0.811
	c0.926-0.219,1.806-0.583,2.614-1.082c0.329-0.203,0.754-0.153,1.027,0.12l1.093,1.093c0.112,0.112,0.294,0.112,0.406,0l1.602-1.602
	c0.112-0.112,0.112-0.294,0-0.406l-1.093-1.093c-0.273-0.273-0.323-0.698-0.12-1.027c0.498-0.807,0.862-1.687,1.082-2.614
	c0.089-0.376,0.425-0.642,0.811-0.642h1.547c0.158,0,0.287-0.129,0.287-0.287v-2.266c0-0.159-0.129-0.287-0.287-0.287h-1.547
	c-0.386,0-0.722-0.266-0.811-0.642c-0.219-0.927-0.583-1.807-1.082-2.614c-0.203-0.329-0.154-0.754,0.12-1.027l1.093-1.093
	c0.112-0.112,0.112-0.294,0-0.406l-1.602-1.602c-0.112-0.112-0.294-0.112-0.406,0l-1.093,1.093c-0.273,0.273-0.698,0.323-1.027,0.12
	c-0.808-0.498-1.687-0.863-2.614-1.082c-0.376-0.089-0.642-0.425-0.642-0.811v-1.547c0-0.158-0.129-0.287-0.287-0.287H26.77
	c-0.159,0-0.287,0.129-0.287,0.287v1.547c0,0.386-0.266,0.722-0.642,0.811c-0.927,0.219-1.807,0.583-2.614,1.082
	c-0.329,0.204-0.754,0.154-1.027-0.12l-1.093-1.093c-0.112-0.112-0.294-0.112-0.406,0l-1.602,1.602
	c-0.074,0.073-0.084,0.159-0.084,0.203s0.011,0.13,0.084,0.203l1.093,1.093c0.273,0.273,0.323,0.698,0.12,1.027
	c-0.498,0.807-0.863,1.687-1.082,2.614c-0.089,0.376-0.425,0.642-0.811,0.642h-1.547c-0.158,0-0.287,0.128-0.287,0.287v2.266
	c0,0.158,0.129,0.287,0.287,0.287h1.547c0.386,0,0.722,0.265,0.811,0.642c0.219,0.927,0.583,1.807,1.082,2.614
	c0.203,0.329,0.154,0.754-0.12,1.027l-1.093,1.093c-0.112,0.112-0.112,0.294,0,0.406l1.602,1.602c0.112,0.112,0.294,0.112,0.406,0
	l1.093-1.093C22.361,135.866,22.574,135.782,22.79,135.782z"/>
<polyline fill="#FFFFFF" points="46.679,132.119 40.055,132.119 40.055,135.313 46.679,135.313 "/>
<polyline fill="#FFFFFF" points="46.679,120.255 45.095,120.255 45.095,117.518 40.055,121.853 45.095,126.187 45.095,123.45 
	46.679,123.45 "/>
<polyline fill="#FFFFFF" points="46.071,123.45 56.144,123.45 56.144,120.255 46.071,120.255 "/>
<polyline fill="#FFFFFF" points="46.071,135.313 51.104,135.313 51.104,138.05 56.144,133.716 51.104,129.381 51.104,132.119 
	46.071,132.119 "/>
<path fill="#FFFFFF" d="M103.496,132.062c0,0.551,0,1.102,0,1.653c-1.526,0.003-2.144,1.837-1.145,2.926
	c-0.518,0.245-0.649,0.876-1.272,1.017c-1.312-1.106-2.529,0.062-2.926,1.272c-0.466,0-0.932,0-1.399,0
	c-0.172-1.592-1.604-2.126-2.926-1.272c-0.375-0.345-0.853-0.588-1.017-1.145c1.005-1.372,0.043-2.536-1.272-2.925
	c0-0.467,0-0.933,0-1.399c1.5-0.235,2.167-1.61,1.272-2.925c0.329-0.435,0.71-0.816,1.145-1.145c1.157,1.222,2.668,0.03,2.925-1.145
	c0.509,0,1.018,0,1.526,0c-0.143,1.648,1.791,2.077,2.798,1.145c0.305,0.5,0.839,0.772,1.145,1.272
	C101.333,130.31,101.949,132.23,103.496,132.062z M95.164,132.952c0,1.299,1.054,2.353,2.354,2.353c1.299,0,2.353-1.054,2.353-2.353
	c0-1.3-1.053-2.353-2.353-2.353C96.218,130.599,95.164,131.652,95.164,132.952z"/>
<path fill="#FFFFFF" d="M88.232,142.11c-0.254,0-0.509,0-0.764,0c-0.141-0.24-0.162-0.601-0.254-0.891
	c-0.803-0.167-0.708,0.807-1.399,0.382c-0.052-0.16-0.164-0.26-0.381-0.255c-0.002-0.399,0.42-0.709,0.127-1.017
	c-0.221-0.345-0.899,0.274-1.017,0c-0.031-0.182-0.209-0.214-0.255-0.381c-0.425-0.549,0.606-0.523,0.382-1.272
	c-0.563-0.074-1.096-0.176-0.891-1.018c0.209-0.214,0.69-0.157,0.891-0.381c-0.11-0.725-0.774-0.786-0.254-1.526
	c0.283-0.268,0.613,0.134,1.145,0c0.315-0.365-0.398-0.991,0.127-1.145c0.614-0.604,0.717,0.244,1.399,0.254
	c0.298-0.169,0.058-0.875,0.509-0.89c0.212,0,0.424,0,0.636,0c0.214,0.209,0.158,0.69,0.381,0.89
	c0.667,0.115,0.479-0.624,1.145-0.509c0.052,0.16,0.164,0.26,0.381,0.254c0.318,0.386-0.292,0.733,0,1.145
	c0.54,0.167,1.008-0.388,1.145,0.127c0.604,0.614-0.244,0.717-0.254,1.399c0.168,0.298,0.875,0.058,0.89,0.508
	c0.257,0.894-0.593,0.68-0.89,1.018c0.11,0.726,0.774,0.786,0.254,1.526c-0.26,0.29-0.843-0.332-1.145,0
	c-0.166,0.539,0.388,1.007-0.127,1.145c-0.614,0.604-0.717-0.243-1.399-0.255C88.442,141.473,88.371,141.825,88.232,142.11z
	 M86.324,138.04c0,0.844,0.684,1.529,1.528,1.529c0.844,0,1.528-0.685,1.528-1.529c0-0.844-0.684-1.528-1.528-1.528
	C87.008,136.512,86.324,137.196,86.324,138.04z"/>
<path fill="#FFFFFF" d="M93.32,124.938c0-1.06,0-2.12,0-3.18c-2.919-0.065-3.885-3.032-2.29-5.215
	c-0.309-0.626-1.325-1.643-2.163-2.163c-2.086,1.881-5.166,0.417-5.215-2.29c-1.018,0-2.035,0-3.053,0
	c0.072,2.846-3.166,4.101-5.215,2.29c-0.88,0.562-1.601,1.283-2.163,2.163c1.695,2.091,0.639,5.271-2.29,5.215c0,1.06,0,2.12,0,3.18
	c2.928-0.057,3.984,3.125,2.29,5.215c0.562,0.879,1.283,1.6,2.163,2.163c2.049-1.812,5.287-0.557,5.215,2.289
	c1.018,0,2.035,0,3.053,0c0.049-2.706,3.129-4.169,5.215-2.289c0.922-0.604,1.686-1.368,2.29-2.29
	C89.261,128.136,90.497,124.932,93.32,124.938z M82.253,127.419c-2.177,0-3.943-1.766-3.943-3.943c0-2.177,1.766-3.943,3.943-3.943
	c2.178,0,3.943,1.766,3.943,3.943C86.196,125.653,84.432,127.419,82.253,127.419z"/>
<path fill="#FFFFFF" d="M149.597,133.939H148.3c-0.248,0-0.45-0.201-0.45-0.45c0-0.248,0.202-0.449,0.45-0.449h1.297
	c0.248,0,0.449,0.201,0.449,0.449C150.046,133.738,149.845,133.939,149.597,133.939z"/>
<path fill="#FFFFFF" d="M149.597,137.022H148.3c-0.248,0-0.45-0.201-0.45-0.45c0-0.248,0.202-0.449,0.45-0.449h1.297
	c0.248,0,0.449,0.202,0.449,0.449C150.046,136.821,149.845,137.022,149.597,137.022z"/>
<path fill="#FFFFFF" d="M149.597,135.48H148.3c-0.248,0-0.45-0.202-0.45-0.45c0-0.248,0.202-0.45,0.45-0.45h1.297
	c0.248,0,0.449,0.202,0.449,0.45C150.046,135.278,149.845,135.48,149.597,135.48z"/>
<circle fill="#FFFFFF" cx="146.305" cy="119.941" r="1.275"/>
<circle fill="#FFFFFF" cx="150.335" cy="115.704" r="2.119"/>
<path fill="#FFFFFF" d="M146.119,130.04l0.181-0.714v-5.047c0-0.77-0.345-1.213-0.634-1.45c-0.312-0.254-0.699-0.384-1.087-0.365
	h-1.941v2.998h0.666v3.484l-4.842,8.924c-0.179,0.317-0.646,1.307-0.12,2.22c0.169,0.292,0.407,0.52,0.695,0.675L141.8,138
	L146.119,130.04z"/>
<path fill="#FFFFFF" d="M156.991,140.088c0.526-0.913,0.058-1.903-0.121-2.22l-4.842-8.924v-3.484h0.666v-2.998h-1.941
	c-0.389-0.019-0.776,0.111-1.086,0.365c-0.29,0.237-0.635,0.681-0.635,1.45v5.047l0.182,0.714l4.319,7.961l2.763,2.763
	C156.584,140.608,156.823,140.38,156.991,140.088z"/>
<path fill="#FFFFFF" d="M153.533,138h-3.429h-2.826H141.8l-2.764,2.763c0.283,0.152,0.613,0.234,0.972,0.234h7.27h2.826h5.22
	c0.36,0,0.69-0.082,0.972-0.234L153.533,138z"/>
<path fill="#494238" d="M39.132,201.972H11.716c-0.823,0-1.498-0.345-1.851-0.947c-0.353-0.602-0.326-1.359,0.076-2.077
	l5.765-10.336c0.644-1.154,2.125-2.023,3.445-2.023h27.415c0.824,0,1.499,0.345,1.852,0.947s0.326,1.359-0.075,2.078l-5.766,10.336
	C41.933,201.103,40.452,201.972,39.132,201.972z M11.753,199.917h27.379c0.57,0,1.371-0.47,1.649-0.968l5.749-10.304H19.15
	c-0.571,0-1.372,0.471-1.649,0.969L11.753,199.917z"/>
<path fill="#494238" d="M37.784,201.972H11.716c-1.511,0-2.741-1.229-2.741-2.741v-19.519c0-1.385,1.033-2.533,2.368-2.715
	l1.723-3.263c0.178-0.337,0.528-0.548,0.909-0.548h7.594c0.381,0,0.731,0.211,0.909,0.548l1.709,3.238h17.355
	c1.511,0,2.74,1.229,2.74,2.74v7.904c0,0.568-0.459,1.028-1.028,1.028c-0.567,0-1.027-0.46-1.027-1.028v-7.904
	c0-0.371-0.314-0.686-0.685-0.686H23.567c-0.381,0-0.73-0.21-0.909-0.547l-1.709-3.238h-6.354l-1.709,3.238
	c-0.178,0.337-0.528,0.547-0.909,0.547h-0.261c-0.372,0-0.685,0.314-0.685,0.686v19.519c0,0.372,0.312,0.685,0.685,0.685h26.068
	c0.567,0,1.028,0.46,1.028,1.028C38.812,201.512,38.351,201.972,37.784,201.972z"/>
<path fill="#494238" d="M78.426,200.616c-5.868,0-10.643-4.774-10.643-10.643c0-4.542,2.888-8.561,7.118-10.043v-7.312
	c0-0.581,0.471-1.052,1.052-1.052H80.9c0.581,0,1.052,0.471,1.052,1.052v7.312c4.229,1.482,7.118,5.501,7.118,10.043
	C89.069,195.842,84.295,200.616,78.426,200.616z M77.005,173.669v7.036c0,0.477-0.321,0.894-0.782,1.017
	c-3.73,0.993-6.336,4.387-6.336,8.25c0,4.708,3.831,8.539,8.539,8.539s8.539-3.831,8.539-8.539c0-3.864-2.606-7.257-6.336-8.25
	c-0.461-0.123-0.782-0.54-0.782-1.017v-7.036H77.005z"/>
<path fill="#494238" d="M87.479,192.844h-4.77c-0.581,0-1.052-0.471-1.052-1.051c0-0.582,0.471-1.053,1.052-1.053h4.77
	c0.581,0,1.052,0.471,1.052,1.053C88.531,192.374,88.06,192.844,87.479,192.844z"/>
<path fill="#494238" d="M87.479,188.185h-4.77c-0.581,0-1.052-0.471-1.052-1.052s0.471-1.051,1.052-1.051h4.77
	c0.581,0,1.052,0.471,1.052,1.051C88.531,187.714,88.06,188.185,87.479,188.185z"/>
<path fill="#494238" d="M98.869,180.665h-2.945c-0.582,0-1.052-0.472-1.052-1.053c0-0.581,0.471-1.051,1.052-1.051h2.945
	c0.581,0,1.052,0.471,1.052,1.051C99.921,180.193,99.45,180.665,98.869,180.665z"/>
<path fill="#494238" d="M98.869,176.005h-2.945c-0.582,0-1.052-0.471-1.052-1.052c0-0.582,0.471-1.052,1.052-1.052h2.945
	c0.581,0,1.052,0.471,1.052,1.052S99.45,176.005,98.869,176.005z"/>
<path fill="#494238" d="M95.924,200.299c-2.203,0-3.995-1.791-3.995-3.994v-28.089c0-0.581,0.471-1.052,1.052-1.052h5.885
	c0.581,0,1.051,0.471,1.051,1.052v28.089C99.917,198.508,98.126,200.299,95.924,200.299z M94.032,169.268v27.037
	c0,1.042,0.849,1.89,1.892,1.89c1.042,0,1.889-0.848,1.889-1.89v-27.037H94.032z"/>
<path fill="#494238" d="M105.804,203.578H64.966c-0.581,0-1.052-0.471-1.052-1.052v-6.147c0-0.581,0.471-1.052,1.052-1.052h6.044
	c0.581,0,1.052,0.472,1.052,1.052c0,0.581-0.471,1.052-1.052,1.052h-4.992v4.043h38.733v-4.043h-5.563
	c-0.582,0-1.052-0.471-1.052-1.052s0.471-1.052,1.052-1.052h6.615c0.581,0,1.052,0.472,1.052,1.052v6.147
	C106.856,203.106,106.385,203.578,105.804,203.578z"/>
<path fill="#515151" d="M161.495,205.656h-29.656c-0.631,0-1.143-0.511-1.143-1.142c0-0.631,0.511-1.143,1.143-1.143h28.513v-32.447
	h-3.955c-0.631,0-1.143-0.511-1.143-1.143c0-0.631,0.512-1.143,1.143-1.143h5.098c0.631,0,1.143,0.512,1.143,1.143v34.732
	C162.637,205.145,162.126,205.656,161.495,205.656z"/>
<path fill="#515151" d="M133.123,205.675c-0.439,0-0.878-0.006-1.318-0.02c-0.618-0.018-1.108-0.524-1.108-1.142v-34.732
	c0-0.309,0.125-0.605,0.347-0.819c0.222-0.216,0.518-0.332,0.831-0.323c7.814,0.241,15.513-1.736,22.256-5.7l1.688-0.993
	c0.354-0.208,0.791-0.21,1.147-0.006c0.355,0.203,0.575,0.582,0.575,0.992v34.732c0,0.405-0.214,0.78-0.563,0.985l-1.688,0.992
	C148.553,203.6,140.916,205.675,133.123,205.675z M132.981,203.39c0.047,0,0.094,0,0.141,0c7.387,0,14.625-1.966,21.007-5.718
	l1.125-0.661v-32.082c-6.727,3.946-14.352,6.014-22.132,6.014c-0.046,0-0.094,0-0.141,0V203.39z M156.397,197.665h0.003H156.397z"/>
<path fill="#515151" d="M149.259,183.998c-0.132,0-4.39,0-4.536,0c-0.377,0-0.952,0.08-1.244,0.515
	c-0.317,0.472-0.145,1.1,0.674,1.351c0,0,0.691,0.209,0.963,0.315c0.196,0.077,0.31,0.215,0.239,0.43
	c-0.082,0.25-0.481,0.243-0.768,0.243c-0.039,0-0.378,0-0.433,0c-0.549,0-0.916,0.517-0.909,0.658
	c0.002,0.037,0.023,0.031,0.055,0.031c0.238,0,1.338,0,1.441,0c0.497,0,1.187-0.04,1.435-0.525c0.206-0.403,0.166-0.953-0.806-1.255
	c-0.396-0.124-0.619-0.205-0.89-0.306c-0.23-0.084-0.336-0.252-0.291-0.409c0.092-0.321,0.577-0.347,0.766-0.347
	c0.052,0,1.025,0,2.003,0v2.788c0,0.036,0.023,0.054,0.055,0.054h0.659c0.084,0,0.143-0.058,0.143-0.143v-2.699
	c0.029,0,0.754,0,0.759,0c0.447,0,0.751-0.498,0.742-0.669C149.313,183.992,149.292,183.998,149.259,183.998z"/>
<path fill="#515151" d="M139.07,183.997h-0.579c-0.081,0.003-0.135,0.059-0.135,0.141v2.959c0,0.162-0.043,0.226-0.362,0.117
	c-0.365-0.125-1.549-0.778-1.892-1.615c0.459-0.589,1.025-0.968,1.748-1.351c0.28-0.148,0.199-0.249,0.09-0.249h-0.764
	c-0.159,0-0.307-0.004-0.485,0.103c-0.405,0.246-0.978,0.897-1.18,1.298v-1.262c0-0.083-0.058-0.141-0.142-0.141h-0.566
	c-0.084,0-0.142,0.058-0.142,0.141v3.261c0,0.084,0.058,0.142,0.142,0.142h0.566c0.084,0,0.142-0.057,0.142-0.142v-1.514
	c0.093,0.246,0.273,0.574,0.496,0.886c0.476,0.666,0.986,0.77,1.439,0.77c0,0,1.314,0,1.411,0c0.302,0,0.348-0.169,0.348-0.442
	v-2.961C139.205,184.056,139.15,184,139.07,183.997z"/>
<path fill="#515151" d="M141.367,187.577L141.367,187.577c-0.126,0-0.306-0.021-0.429-0.051c-0.401-0.095-0.617-0.297-0.686-0.368
	c-0.082-0.084-0.151-0.188,0.017-0.138c0.97,0.291,1.658,0.029,1.983-0.568c0.082-0.15,0.147-0.34,0.17-0.502
	c0.086-0.618-0.259-1.135-0.839-1.257c-0.067-0.014-0.138-0.022-0.208-0.022c-0.504,0-0.952,0.367-1.041,0.855
	c-0.131,0.716,0.36,1.144,0.804,1.231c0.09,0.019,0.086,0.077-0.03,0.115c-0.075,0.023-0.17,0.028-0.259,0.028
	c-0.501,0-0.93-0.277-1.149-0.656c-0.137-0.237-0.19-0.571-0.139-0.873c0.147-0.87,0.905-1.5,1.802-1.5
	c0.128,0,0.257,0.013,0.383,0.04c0.998,0.208,1.64,1.193,1.431,2.196C143.001,186.959,142.239,187.577,141.367,187.577z"/>
<path fill="#515151" d="M141.747,183.911c-0.126-0.026-0.255-0.04-0.383-0.04c-0.897,0-1.654,0.631-1.802,1.5
	c-0.051,0.301,0.002,0.636,0.139,0.873c0.219,0.379,0.648,0.656,1.149,0.656c0.088,0,0.184-0.004,0.259-0.028
	c0.117-0.038,0.12-0.096,0.03-0.115c-0.444-0.088-0.936-0.515-0.804-1.231c0.088-0.488,0.536-0.855,1.041-0.855
	c0.07,0,0.14,0.008,0.208,0.022c0.092,0.019,0.178,0.049,0.258,0.088v-0.847C141.81,183.925,141.779,183.918,141.747,183.911z"/>
<path fill="#515151" d="M153.805,185.268c-0.611-1.772-2.665-1.122-3.928-2.526c-0.633-0.705-0.837-1.247-0.902-1.509h-0.001
	c-0.022-0.088-0.032-0.046-0.03,0.015c0.021,0.464,0.202,1.104,0.55,1.771c0.097,0.18,0.164,0.356,0.22,0.531
	c0.327,1.029,0.25,2.097-0.15,2.965c0.538-0.624,0.831-1.421,1.015-2.004c0.868,0.885,2.096,1.596,3.713,1.703
	C154.075,186.073,153.924,185.61,153.805,185.268z"/>
<path fill="#515151" d="M152.585,179.38c-0.077,0.203-0.137,0.376-0.413,0.68c-0.471,0.519-0.993,0.779-1.441,1.421
	c-0.39,0.561-0.345,1.176-0.345,1.353c0.028-0.173,0.014-0.705,0.435-1.321c0.192-0.282,0.487-0.568,0.738-0.793
	c0.35-0.313,0.501-0.456,0.699-0.687c0.06-0.069,0.149-0.189,0.187-0.259c-0.016,0.048-0.07,0.144-0.125,0.227
	c-0.203,0.306-0.35,0.466-0.678,0.803c-0.26,0.267-0.528,0.544-0.698,0.789c-0.189,0.273-0.409,0.647-0.489,1.306
	c0.087-0.382,0.251-0.846,0.57-1.263c0.162-0.213,0.452-0.533,0.661-0.755c0.325-0.345,0.583-0.672,0.725-0.944
	c0.087-0.165,0.131-0.305,0.131-0.305s-0.028,0.134-0.088,0.275c-0.112,0.265-0.342,0.64-0.697,1.078
	c-0.2,0.246-0.401,0.49-0.602,0.734c-0.246,0.3-0.526,0.835-0.631,1.242c0.028-0.061,0.233-0.641,0.698-1.185
	c0.208-0.242,0.427-0.504,0.599-0.727c0.331-0.425,0.554-0.793,0.68-1.149c0.074-0.211,0.088-0.37,0.088-0.37
	s-0.008,0.183-0.064,0.369c-0.076,0.25-0.186,0.641-0.625,1.266c-0.142,0.204-0.334,0.437-0.543,0.69
	c-0.367,0.446-0.658,0.945-0.764,1.159c0.102-0.151,0.39-0.596,0.835-1.108c0.158-0.182,0.369-0.433,0.529-0.664
	c0.376-0.54,0.532-0.987,0.605-1.31c0.036-0.157,0.041-0.188,0.054-0.265c0,0.084-0.012,0.172-0.028,0.288
	c-0.075,0.575-0.372,1.208-0.603,1.509c-0.627,0.821-0.922,1.098-1.307,1.595c0.354-0.379,1.027-0.991,1.462-1.65
	c0.219-0.332,0.402-0.829,0.473-1.346c0.017-0.125,0.024-0.148,0.033-0.286c0.005,0.107,0.005,0.251-0.012,0.42
	c-0.041,0.38-0.131,0.86-0.357,1.288c-0.176,0.332-0.609,0.86-1.502,1.609c0.455-0.342,1.178-0.842,1.562-1.536
	c0.209-0.377,0.299-0.833,0.327-1.156c0.014-0.159,0.026-0.46,0.026-0.46c0.02,0.18,0.023,0.423,0.018,0.646
	c-0.006,0.398-0.09,0.771-0.242,1.056c-0.159,0.299-0.567,0.886-1.599,1.485c1.157-0.6,1.522-1.1,1.698-1.45
	c0.131-0.263,0.211-0.61,0.216-1.037c0.008-0.58-0.111-1.172-0.134-1.251C152.632,179.35,152.608,179.318,152.585,179.38z"/>
<path fill="#567DFF" d="M28.324,181.025l3.619,4.064c0.407,0.458,1.073,0.458,1.481,0l3.619-4.064
	c0.407-0.458,0.239-0.832-0.373-0.832h-0.885c-0.307,0-0.71,0-1.113,0v-6.965h-3.977v6.965c-0.403,0-0.807,0-1.113,0h-0.885
	C28.084,180.194,27.916,180.568,28.324,181.025z"/>
<path fill="#567DFF" d="M82.004,172.627c0,0.579-0.474,1.051-1.052,1.051h-5.051c-0.579,0-1.052-0.473-1.052-1.051v-0.415
	c0-0.578,0.474-1.052,1.052-1.052h5.051c0.579,0,1.052,0.474,1.052,1.052V172.627z"/>
<path fill="#567DFF" d="M99.972,168.077c0,0.579-0.473,1.053-1.051,1.053h-5.996c-0.578,0-1.052-0.474-1.052-1.053v-0.414
	c0-0.579,0.474-1.052,1.052-1.052h5.996c0.578,0,1.051,0.473,1.051,1.052V168.077z"/>
<path fill="#494238" d="M92.682,197.431h-6.84c-0.581,0-1.052-0.471-1.052-1.052s0.471-1.052,1.052-1.052h6.84
	c0.581,0,1.052,0.472,1.052,1.052C93.734,196.96,93.263,197.431,92.682,197.431z"/>
<polygon fill="#0977D1" points="138.878,175.687 136.86,174.339 134.841,175.687 134.841,169.781 138.878,169.781 "/>
<path fill="#494238" d="M231.652,201.972h-27.416c-0.823,0-1.498-0.345-1.851-0.947c-0.353-0.602-0.326-1.359,0.076-2.077
	l5.765-10.336c0.644-1.154,2.125-2.023,3.445-2.023h27.415c0.824,0,1.499,0.345,1.852,0.947s0.326,1.359-0.075,2.078l-5.766,10.336
	C234.453,201.103,232.973,201.972,231.652,201.972z M204.273,199.917h27.379c0.57,0,1.371-0.47,1.649-0.968l5.749-10.304h-27.379
	c-0.571,0-1.372,0.471-1.649,0.969L204.273,199.917z"/>
<path fill="#494238" d="M230.304,201.972h-26.068c-1.511,0-2.741-1.229-2.741-2.741v-19.519c0-1.385,1.033-2.533,2.368-2.715
	l1.723-3.263c0.178-0.337,0.528-0.548,0.909-0.548h7.594c0.381,0,0.731,0.211,0.909,0.548l1.709,3.238h17.355
	c1.511,0,2.74,1.229,2.74,2.74v7.904c0,0.568-0.459,1.028-1.028,1.028c-0.567,0-1.027-0.46-1.027-1.028v-7.904
	c0-0.371-0.314-0.686-0.685-0.686h-17.975c-0.381,0-0.73-0.21-0.909-0.547l-1.709-3.238h-6.354l-1.709,3.238
	c-0.178,0.337-0.528,0.547-0.909,0.547h-0.261c-0.372,0-0.685,0.314-0.685,0.686v19.519c0,0.372,0.313,0.685,0.685,0.685h26.068
	c0.567,0,1.028,0.46,1.028,1.028C231.332,201.512,230.872,201.972,230.304,201.972z"/>
<path fill="#494238" d="M265.947,205.616c-5.869,0-10.646-4.774-10.646-10.643c0-4.542,2.89-8.561,7.118-10.043v-7.312
	c0-0.581,0.473-1.052,1.053-1.052h4.945c0.582,0,1.055,0.471,1.055,1.052v7.312c4.229,1.482,7.115,5.501,7.115,10.043
	C276.59,200.842,271.816,205.616,265.947,205.616z M264.525,178.669v7.036c0,0.477-0.32,0.894-0.781,1.017
	c-3.73,0.993-6.336,4.387-6.336,8.25c0,4.708,3.83,8.539,8.539,8.539c4.707,0,8.539-3.831,8.539-8.539
	c0-3.864-2.606-7.257-6.336-8.25c-0.461-0.123-0.782-0.54-0.782-1.017v-7.036H264.525z"/>
<path fill="#494238" d="M275,197.844h-4.77c-0.582,0-1.055-0.471-1.055-1.051c0-0.582,0.473-1.053,1.055-1.053H275
	c0.58,0,1.051,0.471,1.051,1.053C276.051,197.374,275.58,197.844,275,197.844z"/>
<path fill="#494238" d="M275,193.185h-4.77c-0.582,0-1.055-0.471-1.055-1.052s0.473-1.051,1.055-1.051H275
	c0.58,0,1.051,0.471,1.051,1.051C276.051,192.714,275.58,193.185,275,193.185z"/>
<path fill="#494238" d="M286.391,185.665h-2.945c-0.58,0-1.053-0.472-1.053-1.053c0-0.581,0.473-1.051,1.053-1.051h2.945
	c0.58,0,1.051,0.471,1.051,1.051C287.441,185.193,286.971,185.665,286.391,185.665z"/>
<path fill="#494238" d="M286.391,181.005h-2.945c-0.58,0-1.053-0.471-1.053-1.052c0-0.582,0.473-1.052,1.053-1.052h2.945
	c0.58,0,1.051,0.471,1.051,1.052S286.971,181.005,286.391,181.005z"/>
<path fill="#494238" d="M283.443,205.299c-2.202,0-3.994-1.791-3.994-3.994v-28.089c0-0.581,0.471-1.052,1.053-1.052h5.885
	c0.58,0,1.051,0.471,1.051,1.052v28.089C287.438,203.508,285.646,205.299,283.443,205.299z M281.553,174.268v27.037
	c0,1.042,0.85,1.89,1.893,1.89c1.041,0,1.891-0.848,1.891-1.89v-27.037H281.553z"/>
<path fill="#494238" d="M293.324,208.578h-40.838c-0.58,0-1.051-0.471-1.051-1.052v-6.147c0-0.581,0.471-1.052,1.051-1.052h6.045
	c0.58,0,1.052,0.472,1.052,1.052c0,0.581-0.472,1.052-1.052,1.052h-4.992v4.043h38.732v-4.043h-5.562
	c-0.581,0-1.052-0.471-1.052-1.052s0.471-1.052,1.052-1.052h6.615c0.58,0,1.053,0.472,1.053,1.052v6.147
	C294.377,208.106,293.904,208.578,293.324,208.578z"/>
<path fill="#515151" d="M338.015,205.656H308.36c-0.632,0-1.145-0.511-1.145-1.142c0-0.631,0.512-1.143,1.145-1.143h28.514v-32.447
	h-3.955c-0.631,0-1.143-0.511-1.143-1.143c0-0.631,0.512-1.143,1.143-1.143h5.098c0.633,0,1.145,0.512,1.145,1.143v34.732
	C339.157,205.145,338.646,205.656,338.015,205.656z"/>
<path fill="#515151" d="M309.642,205.675c-0.438,0-0.877-0.006-1.315-0.02c-0.618-0.018-1.108-0.524-1.108-1.142v-34.732
	c0-0.309,0.125-0.605,0.349-0.819c0.222-0.216,0.518-0.332,0.829-0.323c7.814,0.241,15.515-1.736,22.258-5.7l1.688-0.993
	c0.354-0.208,0.791-0.21,1.147-0.006c0.354,0.203,0.573,0.582,0.573,0.992v34.732c0,0.405-0.215,0.78-0.562,0.985l-1.688,0.992
	C325.073,203.6,317.436,205.675,309.642,205.675z M309.501,203.39c0.047,0,0.094,0,0.141,0c7.389,0,14.625-1.966,21.01-5.718
	l1.125-0.661v-32.082c-6.729,3.946-14.354,6.014-22.135,6.014c-0.047,0-0.094,0-0.141,0V203.39z M332.917,197.665h0.003H332.917z"/>
<path fill="#515151" d="M325.778,183.998c-0.131,0-4.392,0-4.535,0c-0.377,0-0.952,0.08-1.244,0.515
	c-0.316,0.472-0.145,1.1,0.674,1.351c0,0,0.691,0.209,0.963,0.315c0.196,0.077,0.312,0.215,0.238,0.43
	c-0.082,0.25-0.479,0.243-0.768,0.243c-0.039,0-0.378,0-0.436,0c-0.549,0-0.916,0.517-0.908,0.658
	c0.002,0.037,0.023,0.031,0.057,0.031c0.236,0,1.338,0,1.439,0c0.496,0,1.188-0.04,1.437-0.525c0.206-0.403,0.166-0.953-0.808-1.255
	c-0.396-0.124-0.617-0.205-0.891-0.306c-0.229-0.084-0.336-0.252-0.291-0.409c0.092-0.321,0.578-0.347,0.766-0.347
	c0.055,0,1.025,0,2.006,0v2.788c0,0.036,0.021,0.054,0.055,0.054h0.658c0.085,0,0.144-0.058,0.144-0.143v-2.699
	c0.029,0,0.754,0,0.759,0c0.447,0,0.751-0.498,0.742-0.669C325.833,183.992,325.812,183.998,325.778,183.998z"/>
<path fill="#515151" d="M315.589,183.997h-0.578c-0.081,0.003-0.135,0.059-0.136,0.141v2.959c0,0.162-0.043,0.226-0.362,0.117
	c-0.363-0.125-1.549-0.778-1.892-1.615c0.459-0.589,1.025-0.968,1.747-1.351c0.281-0.148,0.199-0.249,0.091-0.249h-0.764
	c-0.159,0-0.31-0.004-0.485,0.103c-0.405,0.246-0.979,0.897-1.18,1.298v-1.262c0-0.083-0.061-0.141-0.145-0.141h-0.564
	c-0.084,0-0.143,0.058-0.143,0.141v3.261c0,0.084,0.059,0.142,0.143,0.142h0.564c0.084,0,0.145-0.057,0.145-0.142v-1.514
	c0.092,0.246,0.271,0.574,0.496,0.886c0.476,0.666,0.984,0.77,1.438,0.77c0,0,1.313,0,1.41,0c0.303,0,0.349-0.169,0.349-0.442
	v-2.961C315.725,184.056,315.67,184,315.589,183.997z"/>
<path fill="#515151" d="M317.887,187.577L317.887,187.577c-0.126,0-0.306-0.021-0.429-0.051c-0.4-0.095-0.617-0.297-0.686-0.368
	c-0.082-0.084-0.151-0.188,0.016-0.138c0.971,0.291,1.658,0.029,1.984-0.568c0.08-0.15,0.146-0.34,0.17-0.502
	c0.086-0.618-0.262-1.135-0.842-1.257c-0.065-0.014-0.138-0.022-0.207-0.022c-0.505,0-0.951,0.367-1.04,0.855
	c-0.132,0.716,0.358,1.144,0.806,1.231c0.09,0.019,0.086,0.077-0.031,0.115c-0.074,0.023-0.17,0.028-0.258,0.028
	c-0.502,0-0.931-0.277-1.149-0.656c-0.137-0.237-0.188-0.571-0.14-0.873c0.147-0.87,0.905-1.5,1.803-1.5
	c0.127,0,0.257,0.013,0.383,0.04c0.998,0.208,1.643,1.193,1.434,2.196C319.521,186.959,318.759,187.577,317.887,187.577z"/>
<path fill="#515151" d="M318.267,183.911c-0.126-0.026-0.256-0.04-0.383-0.04c-0.896,0-1.652,0.631-1.803,1.5
	c-0.051,0.301,0.003,0.636,0.14,0.873c0.221,0.379,0.647,0.656,1.149,0.656c0.088,0,0.184-0.004,0.258-0.028
	c0.117-0.038,0.121-0.096,0.031-0.115c-0.445-0.088-0.938-0.515-0.807-1.231c0.09-0.488,0.536-0.855,1.041-0.855
	c0.069,0,0.142,0.008,0.207,0.022c0.094,0.019,0.18,0.049,0.26,0.088v-0.847C318.329,183.925,318.298,183.918,318.267,183.911z"/>
<path fill="#515151" d="M330.325,185.268c-0.611-1.772-2.666-1.122-3.928-2.526c-0.635-0.705-0.84-1.247-0.902-1.509h-0.002
	c-0.021-0.088-0.031-0.046-0.029,0.015c0.021,0.464,0.201,1.104,0.549,1.771c0.1,0.18,0.164,0.356,0.223,0.531
	c0.325,1.029,0.25,2.097-0.15,2.965c0.538-0.624,0.832-1.421,1.016-2.004c0.868,0.885,2.098,1.596,3.715,1.703
	C330.595,186.073,330.443,185.61,330.325,185.268z"/>
<path fill="#515151" d="M329.104,179.38c-0.074,0.203-0.137,0.376-0.411,0.68c-0.474,0.519-0.993,0.779-1.44,1.421
	c-0.391,0.561-0.346,1.176-0.346,1.353c0.027-0.173,0.015-0.705,0.436-1.321c0.191-0.282,0.487-0.568,0.738-0.793
	c0.35-0.313,0.501-0.456,0.699-0.687c0.06-0.069,0.147-0.189,0.188-0.259c-0.016,0.048-0.068,0.144-0.125,0.227
	c-0.203,0.306-0.351,0.466-0.679,0.803c-0.26,0.267-0.528,0.544-0.698,0.789c-0.188,0.273-0.408,0.647-0.488,1.306
	c0.089-0.382,0.25-0.846,0.569-1.263c0.162-0.213,0.452-0.533,0.661-0.755c0.324-0.345,0.583-0.672,0.725-0.944
	c0.088-0.165,0.133-0.305,0.133-0.305s-0.027,0.134-0.09,0.275c-0.11,0.265-0.342,0.64-0.695,1.078
	c-0.199,0.246-0.4,0.49-0.604,0.734c-0.246,0.3-0.524,0.835-0.631,1.242c0.027-0.061,0.233-0.641,0.697-1.185
	c0.208-0.242,0.428-0.504,0.6-0.727c0.331-0.425,0.557-0.793,0.682-1.149c0.072-0.211,0.088-0.37,0.088-0.37
	s-0.01,0.183-0.064,0.369c-0.075,0.25-0.186,0.641-0.625,1.266c-0.142,0.204-0.334,0.437-0.543,0.69
	c-0.367,0.446-0.658,0.945-0.764,1.159c0.102-0.151,0.39-0.596,0.835-1.108c0.158-0.182,0.368-0.433,0.526-0.664
	c0.379-0.54,0.532-0.987,0.605-1.31c0.036-0.157,0.041-0.188,0.055-0.265c0,0.084-0.012,0.172-0.025,0.288
	c-0.075,0.575-0.372,1.208-0.604,1.509c-0.627,0.821-0.922,1.098-1.307,1.595c0.354-0.379,1.025-0.991,1.462-1.65
	c0.219-0.332,0.4-0.829,0.473-1.346c0.019-0.125,0.024-0.148,0.032-0.286c0.006,0.107,0.006,0.251-0.012,0.42
	c-0.041,0.38-0.131,0.86-0.357,1.288c-0.176,0.332-0.607,0.86-1.502,1.609c0.455-0.342,1.178-0.842,1.562-1.536
	c0.21-0.377,0.3-0.833,0.325-1.156c0.016-0.159,0.025-0.46,0.025-0.46c0.021,0.18,0.023,0.423,0.018,0.646
	c-0.006,0.398-0.09,0.771-0.239,1.056c-0.159,0.299-0.567,0.886-1.601,1.485c1.157-0.6,1.522-1.1,1.697-1.45
	c0.132-0.263,0.211-0.61,0.217-1.037c0.008-0.58-0.109-1.172-0.135-1.251C329.151,179.35,329.128,179.318,329.104,179.38z"/>
<path fill="#567DFF" d="M220.844,181.025l3.619,4.064c0.407,0.458,1.073,0.458,1.481,0l3.619-4.064
	c0.407-0.458,0.239-0.832-0.373-0.832h-0.885c-0.307,0-0.71,0-1.113,0v-6.965h-3.977v6.965c-0.403,0-0.807,0-1.113,0h-0.885
	C220.604,180.194,220.437,180.568,220.844,181.025z"/>
<path fill="#567DFF" d="M270.525,177.627c0,0.579-0.477,1.051-1.053,1.051h-5.053c-0.579,0-1.053-0.473-1.053-1.051v-0.415
	c0-0.578,0.474-1.052,1.053-1.052h5.053c0.576,0,1.053,0.474,1.053,1.052V177.627z"/>
<path fill="#567DFF" d="M288.492,173.077c0,0.579-0.473,1.053-1.051,1.053h-5.996c-0.578,0-1.051-0.474-1.051-1.053v-0.414
	c0-0.579,0.473-1.052,1.051-1.052h5.996c0.578,0,1.051,0.473,1.051,1.052V173.077z"/>
<path fill="#494238" d="M281.203,202.431h-6.842c-0.58,0-1.051-0.471-1.051-1.052s0.471-1.052,1.051-1.052h6.842
	c0.58,0,1.051,0.472,1.051,1.052C282.254,201.96,281.783,202.431,281.203,202.431z"/>
<polygon fill="#0977D1" points="316.397,175.687 314.38,174.339 312.36,175.687 312.36,169.781 316.397,169.781 "/>
<path fill="#555351" d="M98,20.497C98,21.327,97.327,22,96.497,22H82.669c-0.83,0-1.503-0.673-1.503-1.503l0,0
	c0-0.83,0.673-1.503,1.503-1.503h13.828C97.327,18.994,98,19.667,98,20.497L98,20.497z"/>
<circle fill="#555351" cx="76.481" cy="20.497" r="1.503"/>
<path fill="#555351" d="M98,26.528c0,0.83-0.673,1.503-1.503,1.503H82.669c-0.83,0-1.503-0.673-1.503-1.503l0,0
	c0-0.83,0.673-1.503,1.503-1.503h13.828C97.327,25.025,98,25.698,98,26.528L98,26.528z"/>
<circle fill="#555351" cx="76.481" cy="26.528" r="1.503"/>
<path fill="#555351" d="M98,32.497C98,33.327,97.327,34,96.497,34H82.669c-0.83,0-1.503-0.673-1.503-1.503l0,0
	c0-0.83,0.673-1.503,1.503-1.503h13.828C97.327,30.994,98,31.667,98,32.497L98,32.497z"/>
<circle fill="#555351" cx="76.481" cy="32.497" r="1.503"/>
<path fill="#555351" d="M279.969,24.525c0,0.83-0.673,1.503-1.503,1.503h-13.827c-0.83,0-1.504-0.673-1.504-1.503l0,0
	c0-0.83,0.674-1.503,1.504-1.503h13.827C279.296,23.022,279.969,23.695,279.969,24.525L279.969,24.525z"/>
<circle fill="#555351" cx="258.45" cy="24.525" r="1.503"/>
<path fill="#555351" d="M279.969,30.557c0,0.83-0.673,1.503-1.503,1.503h-13.827c-0.83,0-1.504-0.673-1.504-1.503l0,0
	c0-0.83,0.674-1.503,1.504-1.503h13.827C279.296,29.054,279.969,29.727,279.969,30.557L279.969,30.557z"/>
<circle fill="#555351" cx="258.45" cy="30.557" r="1.503"/>
<path fill="#555351" d="M279.969,36.525c0,0.83-0.673,1.503-1.503,1.503h-13.827c-0.83,0-1.504-0.673-1.504-1.503l0,0
	c0-0.83,0.674-1.503,1.504-1.503h13.827C279.296,35.022,279.969,35.695,279.969,36.525L279.969,36.525z"/>
<circle fill="#555351" cx="258.45" cy="36.525" r="1.503"/>
<path fill="#FFFFFF" d="M170.405,20.25c-0.373,0-0.675-0.303-0.675-0.676c0-3.285,2.672-5.959,5.958-5.959
	c0.373,0,0.677,0.303,0.677,0.676c0,0.374-0.304,0.676-0.677,0.676c-2.54,0-4.606,2.066-4.606,4.606
	C171.082,19.948,170.779,20.25,170.405,20.25z"/>
<path fill="#FFFFFF" d="M185.662,26.631h-2.198c-0.374,0-0.676-0.303-0.676-0.676c0-0.374,0.302-0.677,0.676-0.677h2.198
	c0.373,0,0.675,0.303,0.675,0.677C186.337,26.328,186.035,26.631,185.662,26.631z"/>
<circle fill="#FFFFFF" cx="170.406" cy="21.489" r="0.663"/>
<path fill="#FFFFFF" d="M178.461,12.039c-0.14-1.263-1.213-2.249-2.513-2.249c-1.3,0-2.373,0.986-2.513,2.249
	c-3.291,1.064-5.679,4.155-5.679,7.796v5.444h-1.521c-0.373,0-0.675,0.303-0.675,0.677c0,0.373,0.302,0.676,0.675,0.676h6.208
	c0.316,1.646,1.766,2.896,3.505,2.896c1.738,0,3.188-1.249,3.505-2.896h0.369c0.374,0,0.676-0.303,0.676-0.676
	c0-0.374-0.303-0.677-0.676-0.677h-10.713v-5.444c0-3.771,3.067-6.84,6.839-6.84c3.771,0,6.839,3.068,6.839,6.84v6.121
	c0,0.373,0.302,0.676,0.676,0.676c0.373,0,0.677-0.303,0.677-0.676v-6.121C184.14,16.194,181.752,13.103,178.461,12.039z
	 M175.948,28.174c-0.988,0-1.827-0.649-2.113-1.543h4.227C177.774,27.525,176.937,28.174,175.948,28.174z M175.948,11.643
	c-0.339,0-0.675,0.023-1.003,0.064c0.207-0.338,0.578-0.565,1.003-0.565c0.425,0,0.796,0.227,1.003,0.565
	C176.622,11.666,176.288,11.643,175.948,11.643z"/>
<path fill="none" stroke="#999999" stroke-miterlimit="10" d="M143,38h-32V6h32V38z"/>
<rect x="127.062" y="13.062" fill="#999999" width="1" height="18.997"/>
<rect x="118.064" y="22.061" fill="#999999" width="18.997" height="1"/>
</svg>
